<svg width="120" height="120" viewBox="0 0 120 120" fill="none" xmlns="http://www.w3.org/2000/svg" role="img" aria-label="Cuckoo Block logo">
  <rect x="10" y="10" width="100" height="100" rx="22" fill="#0B1220"/>
  <path d="M44 43c0-6 5-11 11-11h10c6 0 11 5 11 11v10c0 6-5 11-11 11H55c-6 0-11-5-11-11V43Z" fill="#ffffff" opacity="0.95"/>
  <path d="M36 69c0-5 4-9 9-9h30c5 0 9 4 9 9v6c0 5-4 9-9 9H45c-5 0-9-4-9-9v-6Z" fill="#ffffff" opacity="0.85"/>
  <circle cx="82" cy="43" r="5" fill="#7CFFB2"/>
</svg>
